<svg width="157" height="146" viewBox="0 0 157 146" fill="none" xmlns="http://www.w3.org/2000/svg">
<g clip-path="url(#clip0_175_428)">
<path opacity="0.951" fill-rule="evenodd" clip-rule="evenodd" d="M156.847 44.627C156.847 69.7207 156.847 94.8145 156.847 119.908C155.232 125.164 151.552 128.443 145.808 129.746C105.944 129.936 66.0811 129.936 26.2178 129.746C24.4719 128.075 24.6763 126.649 26.8311 125.469C66.2856 125.374 105.74 125.279 145.194 125.184C149.549 123.985 151.849 121.276 152.094 117.057C152.298 93.864 152.298 70.6711 152.094 47.4785C151.769 43.023 149.264 40.314 144.581 39.3516C136.711 39.2566 128.84 39.1614 120.97 39.0664C117.36 38.4576 114.447 36.794 112.23 34.0762C110.162 30.3238 108.015 26.6167 105.791 22.9551C104.526 21.8197 103.044 21.0117 101.345 20.5313C86.0127 20.3411 70.6807 20.3411 55.3486 20.5313C53.345 21.0593 51.6585 22.0573 50.2891 23.5254C48.2447 27.1374 46.2006 30.7493 44.1562 34.3613C41.9135 36.9967 39.0004 38.5651 35.417 39.0664C27.6488 39.1614 19.8805 39.2566 12.1123 39.3516C7.42883 40.314 4.92459 43.023 4.59961 47.4785C4.29972 71.4382 4.40192 95.3913 4.90625 119.338C6.01141 122.362 8.20901 124.31 11.499 125.184C13.8499 125.279 16.2008 125.374 18.5518 125.469C20.8774 126.789 20.9796 128.215 18.8584 129.746C12.3695 131.072 6.90101 129.504 2.45312 125.041C1.32165 123.413 0.452841 121.702 -0.15332 119.908C-0.15332 94.8145 -0.15332 69.7207 -0.15332 44.627C1.62006 38.8933 5.70861 35.5664 12.1123 34.6465C12.3171 32.7359 12.5727 30.8348 12.8789 28.9434C13.459 27.9288 14.3278 27.2159 15.4854 26.8047C20.6982 26.6146 25.9111 26.6146 31.124 26.8047C32.2816 27.2159 33.1503 27.9288 33.7305 28.9434C34.0518 30.8297 34.3073 32.7308 34.4971 34.6465C36.7447 34.1483 38.6358 33.1027 40.1699 31.5098C42.2143 27.8978 44.2584 24.2858 46.3027 20.6738C48.4011 18.2007 51.1096 16.6324 54.4287 15.9688C70.2719 15.7786 86.1148 15.7786 101.958 15.9688C105.905 16.6956 108.92 18.6442 111.004 21.8145C112.663 24.9959 114.401 28.1326 116.217 31.2246C117.704 32.9373 119.595 34.0303 121.89 34.5039C130.182 34.5165 138.461 34.7067 146.728 35.0742C152.029 36.5348 155.402 39.7191 156.847 44.627ZM17.3252 31.2246C21.3115 31.2246 25.2979 31.2246 29.2842 31.2246C29.2842 32.3652 29.2842 33.5059 29.2842 34.6465C25.2979 34.6465 21.3115 34.6465 17.3252 34.6465C17.3252 33.5059 17.3252 32.3652 17.3252 31.2246ZM17.3252 48.9043C20.0014 48.9399 21.0747 50.1755 20.5449 52.6113C18.7537 54.5772 17.1183 54.4822 15.6387 52.3262C15.4342 51.6609 15.4342 50.9954 15.6387 50.3301C16.1691 49.7877 16.7312 49.3124 17.3252 48.9043ZM74.9736 48.9043C91.0557 48.3688 102.657 54.7372 109.777 68.0098C115.655 83.1647 112.026 95.9491 98.8916 106.363C84.3918 115.196 70.1842 114.816 56.2686 105.223C44.3289 94.766 41.2116 82.3617 46.916 68.0098C52.6201 57.0159 61.9727 50.6475 74.9736 48.9043Z" fill="white"/>
<path opacity="0.926" fill-rule="evenodd" clip-rule="evenodd" d="M65.7743 26.6623C74.1563 26.6148 82.538 26.6623 90.9188 26.8049C92.223 27.7803 92.4787 28.9684 91.6854 30.3694C91.3263 30.7666 90.8664 31.0044 90.3055 31.0823C82.3329 31.2725 74.3602 31.2725 66.3876 31.0823C64.7299 30.5177 64.1678 29.4244 64.701 27.803C65.123 27.4593 65.4805 27.0791 65.7743 26.6623Z" fill="white"/>
<path opacity="0.927" fill-rule="evenodd" clip-rule="evenodd" d="M16.405 44.3426C22.0074 43.9497 25.176 46.3259 25.9109 51.4715C25.0955 56.3645 22.0291 58.6934 16.7117 58.4578C10.8026 56.5219 9.11607 52.8625 11.6521 47.4793C12.9283 45.9651 14.5127 44.9198 16.405 44.3426ZM17.325 48.9051C16.731 49.3132 16.1688 49.7885 15.6384 50.3309C15.434 50.9962 15.434 51.6617 15.6384 52.327C17.1181 54.483 18.7535 54.578 20.5447 52.6121C21.0744 50.1763 20.0012 48.9407 17.325 48.9051Z" fill="white"/>
<path opacity="0.926" fill-rule="evenodd" clip-rule="evenodd" d="M74.9736 44.3417C93.2476 43.8273 106.382 51.1461 114.377 66.2988C120.106 80.1477 118.061 92.8847 108.244 104.51C97.3008 115.41 83.9619 119.26 68.2275 116.059C49.8794 110.458 40.1693 98.6714 39.0967 80.6992C39.9169 64.9032 47.9917 53.6869 63.3213 47.0507C67.1239 45.6914 71.0082 44.7883 74.9736 44.3417ZM74.9736 48.9042C61.9727 50.6474 52.6201 57.0158 46.916 68.0097C41.2116 82.3616 44.3289 94.7659 56.2686 105.223C70.1842 114.816 84.3918 115.196 98.8916 106.363C112.026 95.949 115.655 83.1646 109.777 68.0097C102.657 54.7371 91.0557 48.3687 74.9736 48.9042Z" fill="white"/>
<path opacity="0.897" fill-rule="evenodd" clip-rule="evenodd" d="M137.528 46.3376C139.295 46.2375 141.032 46.3801 142.741 46.7653C144.376 48.0962 144.376 49.4267 142.741 50.7575C140.697 50.9477 138.653 50.9477 136.608 50.7575C135.273 49.6768 135.069 48.4412 135.995 47.0505C136.551 46.8346 137.062 46.5971 137.528 46.3376Z" fill="white"/>
<path opacity="0.925" fill-rule="evenodd" clip-rule="evenodd" d="M75.5869 54.3214C84.4635 53.7611 92.0787 56.3275 98.4316 62.0206C99.201 63.9112 98.5365 65.1471 96.4385 65.7277C94.813 65.1237 93.3819 64.2206 92.1455 63.0187C82.1441 57.2021 72.4337 57.5822 63.0146 64.1593C53.7805 72.8318 52.4006 82.4794 58.875 93.1027C66.4049 101.994 75.9619 104.608 87.5459 100.944C98.1768 95.9554 102.828 87.9234 101.498 76.8487C100.964 74.9322 100.402 73.0311 99.8115 71.1456C100.28 69.0266 101.609 68.4087 103.798 69.2921C108.825 79.9729 107.343 89.8108 99.3516 98.8058C90.1257 107.136 79.4445 109.274 67.3076 105.222C56.3127 100.356 50.4865 92.2295 49.8291 80.8409C51.14 65.8411 59.7259 57.0013 75.5869 54.3214Z" fill="white"/>
</g>
<defs>
<clipPath id="clip0_175_428">
<rect width="157" height="146" fill="white"/>
</clipPath>
</defs>
</svg>
