<svg width="157" height="147" viewBox="0 0 157 147" fill="none" xmlns="http://www.w3.org/2000/svg">
<g clip-path="url(#clip0_174_315)">
<path opacity="0.896" fill-rule="evenodd" clip-rule="evenodd" d="M156.693 50.4014C156.693 52.4926 156.693 54.5837 156.693 56.6749C155.142 58.7788 153.098 60.3944 150.561 61.5225C155.679 63.5352 157.416 67.0523 155.773 72.0733C153.694 77.2711 151.446 82.404 149.027 87.4717C144.764 91.0294 140.267 91.2193 135.535 88.0421C134.355 90.0479 133.333 92.1392 132.469 94.3155C128.932 98.2501 124.537 99.4854 119.283 98.0225C103.474 92.3354 87.6311 86.7269 71.7539 81.1983C68.5422 87.8898 63.1244 92.2624 55.502 94.3155C52.567 100.064 49.0918 105.482 45.0762 110.569C39.3985 114.408 33.0613 115.834 26.0645 114.847C26.1663 118.084 26.0641 121.316 25.7578 124.542C24.0845 129.047 20.7114 131.519 15.6387 131.956C15.6116 134.004 14.5895 135.429 12.5723 136.233C9.09698 136.614 5.62175 136.614 2.14648 136.233C1.40744 135.449 0.589731 134.784 -0.306641 134.237C-0.306641 114.657 -0.306641 95.0757 -0.306641 75.4952C0.589731 74.9488 1.40744 74.2838 2.14648 73.4991C5.62175 73.1187 9.09698 73.1187 12.5723 73.4991C14.5895 74.3032 15.6116 75.729 15.6387 77.7764C20.8326 78.1426 24.2057 80.6143 25.7578 85.1905C26.0641 88.4168 26.1663 91.6487 26.0645 94.8858C27.7491 95.0643 29.3845 94.8744 30.9707 94.3155C32.5768 91.0419 34.4167 87.9052 36.4902 84.9053C33.3112 79.5615 33.3112 74.2388 36.4902 68.9366C29.2183 66.9091 26.2541 62.4419 27.5977 55.5342C28.9265 52.3025 30.2552 49.0707 31.584 45.8389C29.341 43.3373 28.6255 40.4858 29.4375 37.2842C32.7083 29.2999 35.9792 21.3155 39.25 13.3311C43.212 9.50769 47.8116 8.8423 53.0488 11.335C86.6229 23.1997 120.149 35.1763 153.627 47.2647C154.793 48.2512 155.816 49.2967 156.693 50.4014ZM45.6895 15.0421C81.0224 26.9758 116.081 39.5227 150.867 52.6827C151.276 53.253 151.276 53.8233 150.867 54.3936C141.567 60.768 131.959 66.661 122.043 72.0733C93.6904 62.2069 65.377 52.2266 37.1035 42.1319C35.877 41.7517 35.0593 40.9913 34.6504 39.8506C38.0569 32.2502 41.2254 24.551 44.1562 16.753C44.7971 16.2549 45.3082 15.6846 45.6895 15.0421ZM135.229 71.503C132.856 78.0103 130.301 84.4742 127.562 90.8936C126.494 92.2458 125.062 93.0066 123.27 93.1749C105.958 87.3337 88.6842 81.4407 71.4473 75.4952C69.2247 63.6429 61.6605 58.4149 48.7559 59.8116C45.3967 60.5655 42.4326 61.9913 39.8633 64.0889C37.534 63.3863 35.4897 62.2457 33.7305 60.6671C33.6964 56.1947 34.923 52.0124 37.4102 48.1202C65.052 58.0197 92.752 67.8102 120.51 77.4913C122.385 77.7525 124.225 77.562 126.029 76.921C128.923 74.8176 131.989 73.0115 135.229 71.503ZM51.209 64.6592C62.632 65.6812 67.0274 71.3844 64.3945 81.7686C59.4413 88.9432 53.0019 90.3689 45.0762 86.046C39.4302 80.997 38.7148 75.3885 42.9297 69.2217C45.32 67.0209 48.0797 65.5005 51.209 64.6592ZM144.428 65.2296C147.013 65.7617 149.057 66.9975 150.561 68.9366C148.534 74.0198 146.388 79.0574 144.121 84.0499C143.676 84.3687 143.166 84.5586 142.588 84.6202C141.16 84.1468 139.729 83.6718 138.295 83.1944C137.975 82.8745 137.771 82.4941 137.682 82.0538C139.995 76.4544 142.244 70.846 144.428 65.2296ZM51.209 74.3546C55.3332 74.1857 56.3553 75.7068 54.2754 78.9171C50.3125 79.2136 49.2904 77.6926 51.209 74.3546ZM5.21289 78.3467C6.84833 78.3467 8.4837 78.3467 10.1191 78.3467C10.1191 96.0264 10.1191 113.706 10.1191 131.386C8.4837 131.386 6.84833 131.386 5.21289 131.386C5.21289 113.706 5.21289 96.0264 5.21289 78.3467ZM15.6387 83.4796C18.4361 83.5138 19.9693 84.8443 20.2383 87.4717C20.6472 99.0679 20.6472 110.665 20.2383 122.261C19.5685 124.501 18.0353 125.832 15.6387 126.253C15.6387 111.995 15.6387 97.7374 15.6387 83.4796ZM40.1699 89.753C42.8765 91.5803 45.7384 93.1007 48.7559 94.3155C46.7075 98.7776 44.05 102.864 40.7832 106.577C36.2633 109.023 31.3571 110.068 26.0645 109.714C26.0645 106.482 26.0645 103.251 26.0645 100.019C28.9672 100.177 31.8292 99.9861 34.6504 99.4483C36.6542 96.2916 38.4941 93.0597 40.1699 89.753Z" fill="white"/>
<path opacity="0.88" fill-rule="evenodd" clip-rule="evenodd" d="M50.5957 68.6523C59.9353 68.8696 63.1042 73.0523 60.1016 81.1992C56.556 84.9456 52.3652 85.6106 47.5293 83.1953C43.4408 78.8227 43.4408 74.4507 47.5293 70.0781C48.6422 69.6464 49.6643 69.1713 50.5957 68.6523ZM51.209 74.3555C49.2904 77.6935 50.3126 79.2145 54.2754 78.918C56.3553 75.7077 55.3332 74.1867 51.209 74.3555Z" fill="white"/>
</g>
<defs>
<clipPath id="clip0_174_315">
<rect width="157" height="146" fill="white" transform="translate(0 0.5)"/>
</clipPath>
</defs>
</svg>
