<svg width="157" height="146" viewBox="0 0 157 146" fill="none" xmlns="http://www.w3.org/2000/svg">
<path opacity="0.93" fill-rule="evenodd" clip-rule="evenodd" d="M6.59278 32.3655C54.6578 32.2238 102.698 32.3663 150.714 32.7932C151.141 33.1271 151.397 33.5549 151.48 34.0764C151.685 62.7822 151.685 91.4878 151.48 120.194C151.225 121.001 150.663 121.524 149.794 121.762C102.163 121.952 54.5308 121.952 6.89942 121.762C6.03062 121.524 5.46842 121.001 5.2129 120.194C5.00846 91.4878 5.00846 62.7822 5.2129 34.0764C5.39642 33.2911 5.85638 32.7208 6.59278 32.3655ZM9.96583 36.928C55.5532 36.928 101.14 36.928 146.728 36.928C146.728 63.7327 146.728 90.5374 146.728 117.342C101.14 117.342 55.5532 117.342 9.96583 117.342C9.96583 90.5374 9.96583 63.7327 9.96583 36.928ZM21.3115 45.4827C22.7425 45.4827 24.1735 45.4827 25.6045 45.4827C25.6045 46.8135 25.6045 48.144 25.6045 49.4749C24.1735 49.4749 22.7425 49.4749 21.3115 49.4749C21.3115 48.144 21.3115 46.8135 21.3115 45.4827ZM39.71 45.4827C41.1411 45.4827 42.5718 45.4827 44.0029 45.4827C44.0029 46.8135 44.0029 48.144 44.0029 49.4749C42.5718 49.4749 41.1411 49.4749 39.71 49.4749C39.71 48.144 39.71 46.8135 39.71 45.4827ZM57.8018 45.4827C59.2329 45.4827 60.6636 45.4827 62.0947 45.4827C62.0947 46.8135 62.0947 48.144 62.0947 49.4749C60.6636 49.4749 59.2329 49.4749 57.8018 49.4749C57.8018 48.144 57.8018 46.8135 57.8018 45.4827ZM76.2002 45.4827C77.6313 45.4827 79.0621 45.4827 80.4932 45.4827C80.4932 46.8135 80.4932 48.144 80.4932 49.4749C79.0621 49.4749 77.6313 49.4749 76.2002 49.4749C76.2002 48.144 76.2002 46.8135 76.2002 45.4827ZM94.5986 45.4827C96.0297 45.4827 97.4605 45.4827 98.8916 45.4827C98.8916 46.8135 98.8916 48.144 98.8916 49.4749C97.4605 49.4749 96.0297 49.4749 94.5986 49.4749C94.5986 48.144 94.5986 46.8135 94.5986 45.4827ZM112.69 45.4827C114.122 45.4827 115.552 45.4827 116.983 45.4827C116.983 46.8135 116.983 48.144 116.983 49.4749C115.552 49.4749 114.122 49.4749 112.69 49.4749C112.69 48.144 112.69 46.8135 112.69 45.4827ZM131.089 45.4827C132.52 45.4827 133.951 45.4827 135.382 45.4827C135.382 46.8135 135.382 48.144 135.382 49.4749C133.951 49.4749 132.52 49.4749 131.089 49.4749C131.089 48.144 131.089 46.8135 131.089 45.4827ZM40.6299 68.8655C51.9035 68.0924 60.0295 72.3698 65.0078 81.6975C68.6553 91.5625 66.2534 99.8794 57.8018 106.649C48.2533 112.591 38.8495 112.401 29.5908 106.078C20.8748 98.2486 19.1883 89.2661 24.5313 79.1311C28.369 73.6102 33.7354 70.1883 40.6299 68.8655ZM89.999 75.1389C91.4301 75.1389 92.8609 75.1389 94.292 75.1389C94.292 76.4697 94.292 77.8003 94.292 79.1311C92.8609 79.1311 91.4301 79.1311 89.999 79.1311C89.999 77.8003 89.999 76.4697 89.999 75.1389ZM108.091 79.4163C109.522 79.4163 110.953 79.4163 112.384 79.4163C112.384 80.7471 112.384 82.0776 112.384 83.4085C110.953 83.4085 109.522 83.4085 108.091 83.4085C108.091 82.0776 108.091 80.7471 108.091 79.4163ZM43.083 81.4124C48.9172 81.6576 52.2902 84.4615 53.2022 89.8245C51.8548 96.4832 47.6639 99.0496 40.6299 97.5237C35.8052 95.0913 34.2208 91.4319 35.877 86.5452C37.4516 83.7943 39.8535 82.0833 43.083 81.4124ZM126.489 83.6936C127.92 83.6936 129.351 83.6936 130.782 83.6936C130.782 85.0244 130.782 86.355 130.782 87.6858C129.351 87.6858 127.92 87.6858 126.489 87.6858C126.489 86.355 126.489 85.0244 126.489 83.6936Z" fill="white"/>
<path opacity="0.945" fill-rule="evenodd" clip-rule="evenodd" d="M17.9383 40.9202C21.7216 40.8726 25.5035 40.9202 29.284 41.0628C29.6418 41.3956 29.9995 41.7281 30.3573 42.0608C30.5617 45.5777 30.5617 49.0948 30.3573 52.6116C30.2425 52.8728 30.0892 53.1106 29.8973 53.3245C25.8379 53.789 21.7493 53.884 17.6317 53.6097C17.3762 53.3721 17.1206 53.1343 16.8651 52.8968C16.3739 49.5904 16.2717 46.2635 16.5585 42.9163C16.7211 42.0366 17.181 41.3713 17.9383 40.9202ZM21.3114 45.4827C21.3114 46.8135 21.3114 48.1441 21.3114 49.4749C22.7424 49.4749 24.1734 49.4749 25.6044 49.4749C25.6044 48.1441 25.6044 46.8135 25.6044 45.4827C24.1734 45.4827 22.7424 45.4827 21.3114 45.4827Z" fill="white"/>
<path opacity="0.945" fill-rule="evenodd" clip-rule="evenodd" d="M36.0304 40.9202C39.8137 40.8726 43.5955 40.9202 47.3761 41.0628C47.8149 41.1954 48.1724 41.4332 48.4493 41.7757C48.9418 45.2723 49.0439 48.7894 48.7559 52.3265C48.5152 52.8357 48.1577 53.2635 47.6827 53.6097C43.7985 53.7999 39.9146 53.7999 36.0304 53.6097C35.6725 53.2769 35.315 52.9444 34.9571 52.6116C34.7526 49.1897 34.7526 45.7679 34.9571 42.346C35.2628 41.8261 35.6207 41.3508 36.0304 40.9202ZM39.71 45.4827C39.71 46.8135 39.71 48.1441 39.71 49.4749C41.1411 49.4749 42.5719 49.4749 44.003 49.4749C44.003 48.1441 44.003 46.8135 44.003 45.4827C42.5719 45.4827 41.1411 45.4827 39.71 45.4827Z" fill="white"/>
<path opacity="0.963" fill-rule="evenodd" clip-rule="evenodd" d="M54.4288 40.9202C58.2121 40.8726 61.9939 40.9202 65.7745 41.0628C66.1323 41.3956 66.4899 41.7281 66.8477 42.0608C67.0522 45.5777 67.0522 49.0948 66.8477 52.6116C66.733 52.8728 66.5797 53.1106 66.3878 53.3245C64.3234 53.6467 62.2282 53.7893 60.1016 53.7522C58.2106 53.7046 56.3198 53.6573 54.4288 53.6097C54.1479 53.503 53.8921 53.3604 53.6622 53.1819C53.163 49.502 53.0608 45.795 53.3555 42.0608C53.5671 41.5333 53.9247 41.1529 54.4288 40.9202ZM57.8018 45.4827C57.8018 46.8135 57.8018 48.1441 57.8018 49.4749C59.2329 49.4749 60.6637 49.4749 62.0948 49.4749C62.0948 48.1441 62.0948 46.8135 62.0948 45.4827C60.6637 45.4827 59.2329 45.4827 57.8018 45.4827Z" fill="white"/>
<path opacity="0.945" fill-rule="evenodd" clip-rule="evenodd" d="M72.8273 40.9202C76.5085 40.8726 80.1882 40.9202 83.8663 41.0628C84.3051 41.1954 84.6627 41.4332 84.9396 41.7757C85.4382 45.2651 85.5403 48.7822 85.2462 52.3265C85.0055 52.8357 84.648 53.2635 84.173 53.6097C80.2888 53.7999 76.4048 53.7999 72.5206 53.6097C72.2652 53.3721 72.0095 53.1343 71.754 52.8968C71.2554 49.4073 71.1533 45.8902 71.4474 42.346C71.7617 41.7224 72.2216 41.247 72.8273 40.9202ZM76.2003 45.4827C76.2003 46.8135 76.2003 48.1441 76.2003 49.4749C77.6314 49.4749 79.0622 49.4749 80.4933 49.4749C80.4933 48.1441 80.4933 46.8135 80.4933 45.4827C79.0622 45.4827 77.6314 45.4827 76.2003 45.4827Z" fill="white"/>
<path opacity="0.963" fill-rule="evenodd" clip-rule="evenodd" d="M90.919 40.9202C94.7023 40.8726 98.4841 40.9202 102.265 41.0628C102.546 41.1694 102.801 41.312 103.031 41.4905C103.378 43.4102 103.531 45.3587 103.491 47.3362C105.076 53.087 102.776 55.2256 96.5919 53.7522C94.7008 53.7046 92.8101 53.6573 90.919 53.6097C90.6381 53.503 90.3824 53.3604 90.1524 53.1819C89.6532 49.502 89.5511 45.795 89.8458 42.0608C90.2677 41.7172 90.6252 41.3371 90.919 40.9202ZM94.5987 45.4827C94.5987 46.8135 94.5987 48.1441 94.5987 49.4749C96.0298 49.4749 97.4606 49.4749 98.8917 49.4749C98.8917 48.1441 98.8917 46.8135 98.8917 45.4827C97.4606 45.4827 96.0298 45.4827 94.5987 45.4827Z" fill="white"/>
<path opacity="0.945" fill-rule="evenodd" clip-rule="evenodd" d="M109.317 40.9202C113.101 40.8726 116.882 40.9202 120.663 41.0628C120.918 41.3003 121.174 41.5381 121.429 41.7757C121.928 45.3604 122.03 48.9724 121.736 52.6116C121.378 52.9444 121.021 53.2769 120.663 53.6097C116.779 53.7999 112.895 53.7999 109.011 53.6097C108.755 53.3721 108.499 53.1343 108.244 52.8968C107.752 49.4951 107.65 46.0733 107.937 42.6311C108.121 41.8458 108.581 41.2755 109.317 40.9202ZM112.69 45.4827C112.69 46.8135 112.69 48.1441 112.69 49.4749C114.121 49.4749 115.552 49.4749 116.983 49.4749C116.983 48.1441 116.983 46.8135 116.983 45.4827C115.552 45.4827 114.121 45.4827 112.69 45.4827Z" fill="white"/>
<path opacity="0.945" fill-rule="evenodd" clip-rule="evenodd" d="M127.409 40.9202C131.193 40.8726 134.974 40.9202 138.755 41.0628C139.55 41.4446 140.01 42.0625 140.135 42.9163C140.339 45.9581 140.339 48.9995 140.135 52.0413C140.029 52.7108 139.671 53.2335 139.062 53.6097C135.177 53.7999 131.293 53.7999 127.409 53.6097C127.128 53.503 126.873 53.3604 126.643 53.1819C126.143 49.502 126.041 45.795 126.336 42.0608C126.758 41.7172 127.115 41.3371 127.409 40.9202ZM131.089 45.4827C131.089 46.8135 131.089 48.1441 131.089 49.4749C132.52 49.4749 133.951 49.4749 135.382 49.4749C135.382 48.1441 135.382 46.8135 135.382 45.4827C133.951 45.4827 132.52 45.4827 131.089 45.4827Z" fill="white"/>
<path opacity="0.927" fill-rule="evenodd" clip-rule="evenodd" d="M16.0988 57.7444C57.5977 57.6968 99.0963 57.7444 140.595 57.887C142.791 59.0259 142.996 60.4517 141.208 62.1643C99.3005 62.3545 57.3932 62.3545 15.4855 62.1643C13.7141 60.4089 13.9186 58.9355 16.0988 57.7444Z" fill="white"/>
<path opacity="0.926" fill-rule="evenodd" clip-rule="evenodd" d="M40.3232 64.3034C52.0703 63.469 61.2187 67.5561 67.7676 76.5651C74.1405 88.3092 72.5561 99.0026 63.0146 108.645C54.146 115.58 44.2311 117.196 33.2705 113.493C22.5968 108.763 16.975 100.874 16.4053 89.8248C17.5938 75.7612 25.5664 67.2539 40.3232 64.3034ZM40.6299 68.8659C33.7354 70.1887 28.369 73.6106 24.5312 79.1315C19.1883 89.2665 20.8748 98.2489 29.5908 106.079C38.8495 112.401 48.2533 112.591 57.8018 106.649C66.2534 99.8797 68.6553 91.5629 65.0078 81.6979C60.0295 72.3701 51.9035 68.0928 40.6299 68.8659ZM43.083 81.4127C39.8535 82.0837 37.4516 83.7946 35.877 86.5455C34.2208 91.4323 35.8052 95.0917 40.6299 97.5241C47.6639 99.0499 51.8548 96.4835 53.2021 89.8248C52.2902 84.4619 48.9172 81.658 43.083 81.4127Z" fill="white"/>
<path opacity="0.932" fill-rule="evenodd" clip-rule="evenodd" d="M90.9192 64.302C92.1506 64.1309 93.2239 64.4161 94.1389 65.1575C94.559 66.9374 94.7123 68.7433 94.5989 70.5755C96.0658 70.387 97.3948 70.6721 98.5852 71.4309C98.7686 71.8002 98.9219 72.1803 99.0451 72.5716C99.3248 75.915 99.2227 79.2419 98.7385 82.552C97.5932 83.5774 96.2133 83.9576 94.5989 83.6926C94.6501 93.6737 94.5989 103.654 94.4455 113.634C94.1723 114.792 93.4057 115.363 92.1457 115.345C91.0814 115.445 90.3148 115.064 89.8459 114.204C89.6926 104.034 89.6414 93.8636 89.6926 83.6926C88.7672 83.7397 87.8472 83.6921 86.9328 83.5501C86.372 83.4722 85.912 83.2344 85.553 82.8372C85.2068 80.9654 85.0534 79.0643 85.093 77.1341C85.0534 75.2038 85.2068 73.3027 85.553 71.4309C85.8299 71.0885 86.1874 70.8506 86.6262 70.718C87.6433 70.576 88.6654 70.5284 89.6926 70.5755C89.6417 68.862 89.6929 67.151 89.8459 65.4427C90.0575 64.9151 90.4151 64.5347 90.9192 64.302ZM89.9992 75.138C89.9992 76.4688 89.9992 77.7993 89.9992 79.1302C91.4303 79.1302 92.8611 79.1302 94.2922 79.1302C94.2922 77.7993 94.2922 76.4688 94.2922 75.138C92.8611 75.138 91.4303 75.138 89.9992 75.138Z" fill="white"/>
<path opacity="0.931" fill-rule="evenodd" clip-rule="evenodd" d="M109.318 64.3036C110.67 64.0521 111.743 64.4325 112.537 65.4442C112.691 68.5795 112.742 71.7162 112.691 74.8544C113.718 74.8073 114.74 74.855 115.757 74.997C116.196 75.1296 116.553 75.3674 116.83 75.7098C117.176 77.5816 117.33 79.4828 117.29 81.413C117.33 83.3432 117.176 85.2443 116.83 87.1161C115.575 87.8649 114.196 88.1501 112.691 87.9716C112.742 96.7167 112.691 105.462 112.537 114.206C112.068 115.066 111.302 115.446 110.237 115.347C108.977 115.364 108.211 114.794 107.938 113.636C107.784 105.082 107.733 96.5268 107.784 87.9716C106.185 88.1991 104.805 87.8187 103.645 86.8309C103.306 85.047 103.153 83.2411 103.185 81.413C103.236 79.8922 103.287 78.3712 103.338 76.8505C103.463 75.9967 103.922 75.3788 104.718 74.997C105.735 74.855 106.757 74.8073 107.784 74.8544C107.733 71.9061 107.784 68.9596 107.938 66.0145C108.121 65.2292 108.581 64.6589 109.318 64.3036ZM108.091 79.4169C108.091 80.7477 108.091 82.0782 108.091 83.4091C109.522 83.4091 110.953 83.4091 112.384 83.4091C112.384 82.0782 112.384 80.7477 112.384 79.4169C110.953 79.4169 109.522 79.4169 108.091 79.4169Z" fill="white"/>
<path opacity="0.934" fill-rule="evenodd" clip-rule="evenodd" d="M127.409 64.303C129.017 63.9525 130.192 64.4276 130.936 65.7288C131.089 70.1952 131.14 74.6627 131.089 79.1311C132.116 79.0841 133.138 79.1317 134.155 79.2737C134.594 79.4063 134.952 79.6441 135.229 79.9866C135.568 81.8658 135.722 83.7669 135.689 85.6897C135.728 87.5253 135.574 89.3311 135.229 91.1077C134.973 91.3452 134.718 91.583 134.462 91.8206C133.342 91.9629 132.218 92.0102 131.089 91.9631C131.14 99.2828 131.089 106.602 130.936 113.92C129.932 115.414 128.552 115.746 126.796 114.918C126.604 114.704 126.451 114.467 126.336 114.205C126.183 106.792 126.132 99.3778 126.183 91.9631C125.054 92.0102 123.93 91.9629 122.81 91.8206C122.35 91.583 121.992 91.2502 121.737 90.8225C121.685 89.1116 121.634 87.4006 121.583 85.6897C121.544 83.7595 121.697 81.8583 122.043 79.9866C122.299 79.749 122.554 79.5112 122.81 79.2737C123.93 79.1314 125.054 79.0841 126.183 79.1311C126.132 74.5678 126.183 70.0053 126.336 65.4436C126.758 65.1 127.116 64.7199 127.409 64.303ZM126.489 83.6936C126.489 85.0244 126.489 86.355 126.489 87.6858C127.921 87.6858 129.351 87.6858 130.782 87.6858C130.782 86.355 130.782 85.0244 130.782 83.6936C129.351 83.6936 127.921 83.6936 126.489 83.6936Z" fill="white"/>
<path opacity="0.926" fill-rule="evenodd" clip-rule="evenodd" d="M43.3895 76.8496C54.3341 77.9495 58.9846 83.5573 57.3416 93.6738C53.7616 101.471 47.5776 104.18 38.7899 101.801C31.2621 98.1046 28.7578 92.4491 31.2772 84.834C33.703 80.0254 37.7405 77.364 43.3895 76.8496ZM43.0828 81.4121C39.8533 82.0831 37.4514 83.794 35.8768 86.5449C34.2206 91.4316 35.805 95.0911 40.6297 97.5234C47.6637 99.0493 51.8546 96.4829 53.202 89.8242C52.29 84.4613 48.917 81.6573 43.0828 81.4121Z" fill="white"/>
</svg>
