<svg width="157" height="147" viewBox="0 0 157 147" fill="none" xmlns="http://www.w3.org/2000/svg">
<g clip-path="url(#clip0_174_324)">
<path opacity="0.986" fill-rule="evenodd" clip-rule="evenodd" d="M11.959 0.214844C37.5124 0.214844 63.0656 0.214844 88.6191 0.214844C94.5367 2.20132 98.523 6.00341 100.578 11.6211C100.885 24.9271 100.987 38.2343 100.885 51.543C67.1543 51.543 33.4238 51.543 -0.306641 51.543C-0.306641 38.2357 -0.306641 24.9284 -0.306641 11.6211C1.94206 6.10807 6.0306 2.30599 11.959 0.214844ZM47.5293 13.332C59.0834 13.3342 64.2964 18.6571 63.168 29.3008C60.4208 35.9511 55.2079 38.8977 47.5293 38.1406C37.8228 34.8175 34.8586 28.6391 38.6367 19.6055C40.7921 16.4707 43.7563 14.3795 47.5293 13.332ZM21.1582 21.8867C25.6172 21.6219 27.3548 23.523 26.3711 27.5898C25.2544 29.5806 23.5168 30.246 21.1582 29.5859C18.9356 28.3533 18.2202 26.5473 19.0117 24.168C19.4347 23.1128 20.1502 22.3523 21.1582 21.8867ZM76.3535 21.8867C80.8127 21.6219 82.5501 23.523 81.5664 27.5898C80.4496 29.5806 78.7122 30.246 76.3535 29.5859C74.131 28.3533 73.4153 26.5473 74.207 24.168C74.6302 23.1128 75.3453 22.3523 76.3535 21.8867Z" fill="white"/>
<path opacity="0.883" fill-rule="evenodd" clip-rule="evenodd" d="M48.1424 21.3161C53.4487 21.0228 55.5951 23.3041 54.5818 28.1598C51.7198 31.2015 48.8579 31.2015 45.9959 28.1598C45.133 25.3649 45.8485 23.0837 48.1424 21.3161Z" fill="white"/>
<path opacity="0.922" fill-rule="evenodd" clip-rule="evenodd" d="M156.693 66.3707C156.693 70.9332 156.693 75.4957 156.693 80.0582C154.73 88.3637 150.437 95.4926 143.814 101.445C137.639 102.168 135.493 99.7922 137.375 94.316C147.094 84.9624 149.547 74.1264 144.734 61.8082C142.996 58.1018 140.543 54.8702 137.375 52.1129C135.493 46.637 137.639 44.2607 143.814 44.984C150.437 50.9365 154.73 58.0653 156.693 66.3707Z" fill="white"/>
<path opacity="0.915" fill-rule="evenodd" clip-rule="evenodd" d="M126.029 56.6759C129.243 56.1275 131.798 57.078 133.695 59.5274C140.814 69.7896 140.098 79.5796 131.549 88.8985C127.233 90.8667 124.575 89.7261 123.576 85.4767C123.602 84.3549 123.909 83.3089 124.496 82.3399C128.501 78.1892 129.524 73.4368 127.562 68.0821C126.691 66.6512 125.669 65.3201 124.496 64.0899C122.937 61.203 123.449 58.7319 126.029 56.6759Z" fill="white"/>
<path opacity="0.991" fill-rule="evenodd" clip-rule="evenodd" d="M-0.306641 60.0977C33.4238 60.0977 67.1543 60.0977 100.885 60.0977C100.987 85.0021 100.885 109.906 100.578 134.809C98.523 140.426 94.5367 144.228 88.6191 146.215C63.0656 146.215 37.5124 146.215 11.959 146.215C6.0306 144.124 1.94206 140.322 -0.306641 134.809C-0.306641 109.905 -0.306641 85.0015 -0.306641 60.0977ZM48.1426 73.7852C50.4651 73.3939 52.4072 73.9642 53.9688 75.4961C54.7014 77.9205 55.008 80.3922 54.8887 82.9102C60.2296 84.3548 64.2161 87.3968 66.8477 92.0352C67.9178 98.2926 68.9402 104.566 69.9141 110.855C71.3773 114.05 72.9106 117.187 74.5137 120.266C74.1199 122.533 72.6892 123.864 70.2207 124.258C65.1139 124.543 60.0034 124.638 54.8887 124.543C55.2496 127.486 54.432 130.052 52.4355 132.242C50.1211 132.917 48.179 132.441 46.6094 130.816C45.9301 128.771 45.6235 126.68 45.6895 124.543C40.5747 124.638 35.464 124.543 30.3574 124.258C27.8891 123.864 26.4581 122.533 26.0645 120.266C27.6673 117.187 29.2005 114.05 30.6641 110.855C31.6382 104.566 32.6604 98.2926 33.7305 92.0352C36.3622 87.3968 40.3485 84.3548 45.6895 82.9102C45.2245 79.4985 46.0422 76.4571 48.1426 73.7852Z" fill="white"/>
<path opacity="0.869" fill-rule="evenodd" clip-rule="evenodd" d="M113.764 68.6523C119.418 68.7196 121.258 71.1914 119.283 76.0664C116.369 78.4218 113.609 78.2313 111.004 75.4961C109.967 72.4341 110.887 70.1528 113.764 68.6523Z" fill="white"/>
<path opacity="0.956" fill-rule="evenodd" clip-rule="evenodd" d="M46.916 90.3233C53.049 89.2283 57.2397 91.3191 59.4883 96.5967C59.2885 103.086 60.4129 109.36 62.8613 115.417C54.4798 116.177 46.0983 116.177 37.7168 115.417C38.6167 113.382 39.3322 111.29 39.8633 109.144C40.4006 104.371 41.0139 99.6177 41.7031 94.8858C42.9749 92.8458 44.7126 91.3248 46.916 90.3233Z" fill="white"/>
</g>
<defs>
<clipPath id="clip0_174_324">
<rect width="157" height="146" fill="white" transform="translate(0 0.5)"/>
</clipPath>
</defs>
</svg>
