<svg width="158" height="146" viewBox="0 0 158 146" fill="none" xmlns="http://www.w3.org/2000/svg">
<g clip-path="url(#clip0_174_343)">
<path opacity="0.897" fill-rule="evenodd" clip-rule="evenodd" d="M11.2324 -0.285156C13.2767 -0.285156 15.321 -0.285156 17.3652 -0.285156C19.0006 0.66921 20.2272 1.99994 21.0449 3.70703C59.4772 4.46745 97.9093 4.46745 136.342 3.70703C137.159 1.99994 138.386 0.66921 140.021 -0.285156C142.066 -0.285156 144.11 -0.285156 146.154 -0.285156C148.58 1.36958 149.908 3.65083 150.141 6.55859C152.298 28.3346 154.649 50.0064 157.193 71.5742C157.193 93.436 157.193 115.298 157.193 137.16C155.558 141.342 152.491 144.194 147.994 145.715C101.794 145.715 55.5931 145.715 9.39258 145.715C5.15252 144.244 2.08612 141.582 0.193359 137.73C0.193359 115.678 0.193359 93.6265 0.193359 71.5742C2.73759 50.0064 5.0885 28.3346 7.24609 6.55859C7.47822 3.65083 8.80702 1.36958 11.2324 -0.285156ZM13.6855 4.84766C14.2963 4.79874 14.8074 4.98884 15.2188 5.41797C15.4232 27.8502 15.6276 50.2826 15.832 72.7148C16.7125 76.3477 19.0633 78.7242 22.8848 79.8438C60.0905 80.2242 97.296 80.2242 134.502 79.8438C138.323 78.7242 140.674 76.3477 141.555 72.7148C141.759 50.2826 141.964 27.8502 142.168 5.41797C142.781 4.65755 143.395 4.65755 144.008 5.41797C146.571 28.7907 149.024 52.1735 151.367 75.5664C151.776 95.5273 151.776 115.488 151.367 135.449C150.447 137.826 148.71 139.441 146.154 140.297C101.181 140.677 56.2064 140.677 11.2324 140.297C8.67706 139.441 6.93945 137.826 6.01953 135.449C5.61067 115.488 5.61067 95.5273 6.01953 75.5664C8.30137 51.9365 10.8567 28.3636 13.6855 4.84766ZM21.6582 9.98047C59.6816 9.98047 97.7051 9.98047 135.729 9.98047C135.729 11.3112 135.729 12.6419 135.729 13.9727C97.7051 13.9727 59.6816 13.9727 21.6582 13.9727C21.6582 12.6419 21.6582 11.3112 21.6582 9.98047ZM21.6582 19.6758C59.6816 19.6758 97.7051 19.6758 135.729 19.6758C135.831 37.1664 135.729 54.656 135.422 72.1445C134.742 73.4648 133.617 74.3203 132.049 74.7109C130.015 74.9949 127.971 75.0902 125.916 74.9961C126.076 69.6568 125.054 64.524 122.85 59.5977C123.241 57.901 123.548 56.1902 123.77 54.4648C125.855 52.6767 127.49 50.5856 128.676 48.1914C129.71 42.9832 130.63 37.7554 131.436 32.5078C131.294 30.9681 130.681 29.6373 129.596 28.5156C125.975 26.3093 122.295 25.9291 118.557 27.375C116.131 32.6215 114.189 38.0394 112.73 43.6289C111.272 38.0394 109.33 32.6215 106.904 27.375C105.769 26.8975 104.645 26.4223 103.531 25.9492C101.163 26.4927 98.812 27.158 96.4785 27.9453C95.5285 28.6377 94.8135 29.4931 94.332 30.5117C94.5387 35.8547 95.152 41.1776 96.1719 46.4805C97.2672 49.5897 99.107 52.2512 101.691 54.4648C101.913 56.1902 102.219 57.901 102.611 59.5977C100.334 64.5075 99.3125 69.6403 99.5449 74.9961C95.252 74.9961 90.959 74.9961 86.666 74.9961C86.5636 65.489 86.666 55.9838 86.9727 46.4805C88.8806 44.0724 89.4939 41.411 88.8125 38.4961C87.8693 34.7972 86.6427 31.1853 85.1328 27.6602C80.8398 25.3789 76.5469 25.3789 72.2539 27.6602C69.8719 32.5847 68.6454 37.7176 68.5742 43.0586C69.1875 44.1992 69.8008 45.3398 70.4141 46.4805C70.7207 55.9838 70.8231 65.489 70.7207 74.9961C65.6102 74.9961 60.4993 74.9961 55.3887 74.9961C55.2866 68.34 55.3887 61.6861 55.6953 55.0352C63.3043 48.9408 65.1441 41.5267 61.2148 32.793C59.4455 29.3112 56.5835 27.03 52.6289 25.9492C49.836 26.1961 47.9961 27.5268 47.1094 29.9414C46.905 32.793 46.7005 35.6445 46.4961 38.4961C45.8828 39.0664 45.2695 39.6367 44.6562 40.207C44.043 39.6367 43.4297 39.0664 42.8164 38.4961C42.612 35.6445 42.4075 32.793 42.2031 29.9414C41.7828 28.4829 40.8629 27.4374 39.4434 26.8047C36.4066 26.0574 33.749 26.6277 31.4707 28.5156C24.5135 36.3695 24.2069 44.4488 30.5508 52.7539C31.396 53.7311 32.4181 54.4915 33.6172 55.0352C33.9238 61.6861 34.0259 68.34 33.9238 74.9961C31.0546 75.0908 28.1926 74.9955 25.3379 74.7109C23.7695 74.3203 22.6452 73.4648 21.9648 72.1445C21.6582 54.656 21.556 37.1664 21.6582 19.6758ZM76.8535 31.6523C78.1439 31.4819 79.3704 31.672 80.5332 32.2227C81.5414 34.8333 82.3596 37.4947 82.9863 40.207C82.825 41.6487 82.3142 42.9794 81.4531 44.1992C81.1465 54.4631 81.0441 64.7288 81.1465 74.9961C79.5109 74.9961 77.8759 74.9961 76.2402 74.9961C76.3427 64.7288 76.2402 54.4631 75.9336 44.1992C75.0725 42.9794 74.5617 41.6487 74.4004 40.207C75.1241 37.3238 75.9422 34.4722 76.8535 31.6523ZM35.7637 32.2227C34.6035 39.1889 37.5677 43.9415 44.6562 46.4805C51.7924 44.0509 54.6544 39.2984 53.2422 32.2227C58.0447 37.4377 58.4535 42.9507 54.4688 48.7617C53.0378 49.9023 51.6068 51.043 50.1758 52.1836C49.8692 59.7853 49.767 67.3898 49.8691 74.9961C46.5983 74.9961 43.3275 74.9961 40.0566 74.9961C40.1588 67.9596 40.0566 60.9259 39.75 53.8945C38.7788 51.6592 37.1434 49.9483 34.8438 48.7617C30.9537 43.03 31.2603 37.517 35.7637 32.2227ZM100.771 32.2227C101.589 32.2227 102.407 32.2227 103.225 32.2227C104.367 37.0399 105.798 41.7926 107.518 46.4805C106.631 47.3717 105.61 48.1321 104.451 48.7617C102.892 47.3833 101.972 45.6724 101.691 43.6289C100.821 39.7998 100.515 35.9978 100.771 32.2227ZM122.236 32.2227C123.93 31.8889 124.951 32.4592 125.303 33.9336C124.637 37.9352 123.922 41.9274 123.156 45.9102C121.728 49.4897 119.99 49.5848 117.943 46.1953C119.565 41.5773 120.996 36.9198 122.236 32.2227ZM111.197 51.043C116.191 51.032 118.132 53.3132 117.023 57.8867C114.161 60.9282 111.3 60.9282 108.438 57.8867C107.4 54.8248 108.32 52.5435 111.197 51.043ZM106.904 64.1602C107.706 64.5326 108.523 64.913 109.357 65.3008C109.968 68.5105 110.172 71.7419 109.971 74.9961C108.335 74.9961 106.7 74.9961 105.064 74.9961C105.347 71.3318 105.96 67.72 106.904 64.1602ZM117.943 64.1602C119.477 67.5632 120.294 71.175 120.396 74.9961C118.761 74.9961 117.126 74.9961 115.49 74.9961C115.288 71.7419 115.493 68.5105 116.104 65.3008C116.863 65.0487 117.477 64.6683 117.943 64.1602ZM80.5332 97.8086C80.9355 98.4485 81.1397 99.2087 81.1465 100.09C80.6828 102.96 80.3762 105.812 80.2266 108.645C80.4559 109.167 80.7626 109.643 81.1465 110.07C82.9397 110.634 84.7796 111.014 86.666 111.211C83.293 115.108 79.9199 119.005 76.5469 122.902C76.5739 119.264 76.7781 115.652 77.1602 112.066C76.9308 111.544 76.6241 111.068 76.2402 110.641C74.1962 110.451 72.1515 110.26 70.1074 110.07C73.7141 106.054 77.189 101.967 80.5332 97.8086Z" fill="white"/>
<path opacity="0.883" fill-rule="evenodd" clip-rule="evenodd" d="M82.9862 86.9723C85.9502 86.5445 87.79 87.6851 88.5057 90.3941C87.5343 95.2908 86.921 100.233 86.6659 105.222C91.975 104.184 94.53 106.085 94.3319 110.925C88.1138 118.59 81.6744 126.1 75.0135 133.453C71.7687 134.322 69.7246 133.277 68.8807 130.316C69.8522 125.419 70.4654 120.477 70.7206 115.488C68.3852 115.68 66.1369 115.395 63.9745 114.632C62.8417 113.162 62.5351 111.546 63.0545 109.785C69.5694 102.014 76.2137 94.4091 82.9862 86.9723ZM80.5331 97.8082C77.1888 101.967 73.714 106.054 70.1073 110.07C72.1513 110.26 74.196 110.45 76.2401 110.64C76.624 111.068 76.9306 111.544 77.16 112.066C76.7779 115.652 76.5737 119.264 76.5467 122.902C79.9198 119.005 83.2928 115.107 86.6659 111.211C84.7794 111.013 82.9396 110.633 81.1463 110.07C80.7624 109.642 80.4558 109.167 80.2264 108.644C80.3761 105.811 80.6827 102.96 81.1463 100.089C81.1396 99.2083 80.9354 98.4481 80.5331 97.8082Z" fill="white"/>
</g>
<defs>
<clipPath id="clip0_174_343">
<rect width="157" height="146" fill="white" transform="translate(0.5)"/>
</clipPath>
</defs>
</svg>
